# xmcd CD database file
#
# Track frame offsets:
#	150
#	41810
#	64475
#	85348
#	112598
#	138310
#
# Disc length: 2254 seconds
#
# Revision: 0
# Processed by: cddbd v1.5.2PL0 Copyright (c) Steve Scherf et al.
# Submitted via: CDex 1.70beta3
#
DISCID=4d08cc06
DTITLE=Gene Ammons - Soul Summit (Prestige PRLP 7234)
DYEAR=1962
DGENRE=Jazz
TTITLE0=	Dumplin' 
TTITLE1=Tubby
TTITLE2=Shuffle Twist 
TTITLE3=Sleeping Susan 
TTITLE4=Out in the Cold Again 
TTITLE5=When You Wish Upon a Star 
EXTD=YEAR: 1962
EXTT0=
EXTT1=
EXTT2=
EXTT3=
EXTT4=
EXTT5=
PLAYORDER=
